# xmcd
#
# Track frame offsets:
#  150
#  29214
#  61098
#  86147
#  114680
#  151489
#  179322
#  186840
#  215653
#  233842
#  262923
#  290920
#
# Disc length: 4292 seconds
#
# Revision: 0
# Processed by: cddbd v1.5.1PL2 Copyright (c) Steve Scherf et al.
# Submitted via: Collectorz.com_Music_Collector 6.9
#
DISCID=b510c20c
DTITLE=Walter Trout Band - Live,No More Fish Jokes
DYEAR=1993
DGENRE=Blues
TTITLE0=Dust My Broom
TTITLE1=If You Just Try
TTITLE2=False Alarm
TTITLE3=Life In The Jungle
TTITLE4=Girl From The North Country
TTITLE5=Victor The Cajun
TTITLE6=Earrings On The Table
TTITLE7=Motivation Of Love
TTITLE8=Playing With Gloves On
TTITLE9=The Love That We Once Knew
TTITLE10=Prisoner Of A Dream
TTITLE11=Going Down
EXTD=
EXTT0=
EXTT1=
EXTT2=
EXTT3=
EXTT4=
EXTT5=
EXTT6=
EXTT7=
EXTT8=
EXTT9=
EXTT10=
EXTT11=
PLAYORDER=
